<?xml version="1.0" encoding="UTF-8" standalone="no"?>
<!DOCTYPE svg PUBLIC "-//W3C//DTD SVG 1.1//EN" "http://www.w3.org/Graphics/SVG/1.1/DTD/svg11.dtd">
<svg width="100%" height="100%" viewBox="0 0 317 524" version="1.1" xmlns="http://www.w3.org/2000/svg" xmlns:xlink="http://www.w3.org/1999/xlink" xml:space="preserve" xmlns:serif="http://www.serif.com/" style="fill-rule:evenodd;clip-rule:evenodd;stroke-linejoin:round;stroke-miterlimit:2;">
    <g transform="matrix(1,0,0,1,-342.418,-128.038)">
        <g transform="matrix(1,0,0,0.709713,-1.46073,110.919)">
            <path d="M660.34,506.405C660.34,459.54 633.337,421.492 600.076,421.492L404.143,421.492C370.882,421.492 343.879,459.54 343.879,506.405L343.879,676.231C343.879,723.096 370.882,761.145 404.143,761.145L600.076,761.145C633.337,761.145 660.34,723.096 660.34,676.231L660.34,506.405Z" style="fill:rgb(255,186,0);"/>
        </g>
        <g>
            <g transform="matrix(1,0,0,0.740741,0,64.8148)">
                <rect x="390" y="250" width="220" height="270" style="fill:rgb(167,125,49);"/>
            </g>
            <g transform="matrix(0.785714,0,0,1.14286,107.143,-42.8571)">
                <path d="M500,160C577.268,160 640,205.232 640,282.5C640,306.368 625.096,330.519 614.545,352.5C590.94,401.679 553.4,440 500,440C446.6,440 409.06,401.679 385.455,352.5C374.904,330.519 360,306.368 360,282.5C360,205.232 422.732,160 500,160Z" style="fill:rgb(255,220,154);"/>
            </g>
            <g transform="matrix(1.32663,0,0,1,-163.111,9)">
                <path d="M470,370C470,359.514 483.443,351 500,351C516.557,351 530,359.514 530,370L470,370Z" style="fill:rgb(79,77,75);"/>
            </g>
            <path d="M500,140C560.711,140 610,184.808 610,240L610,290C540.025,266.265 514.857,231.819 500,200C474.28,251.221 429.508,271.07 390,290L390,240C390,184.808 439.289,140 500,140Z" style="fill:rgb(226,159,31);"/>
            <g transform="matrix(1.08622,0,0,1.29745,-40.4058,-118.936)">
                <ellipse cx="497.511" cy="370" rx="18.412" ry="3.762" style="fill:rgb(167,125,49);"/>
            </g>
            <g transform="matrix(1,0,0,1.27236,2.84217e-12,-29.2343)">
                <path d="M500,235.181C504.045,258.776 510.629,282.118 520,305.181C520,305.181 506.667,308.614 500,308.614C493.333,308.614 480,305.181 480,305.181C490.557,279.154 496.368,256.413 500,235.181Z" style="fill:rgb(229,187,109);"/>
            </g>
            <g transform="matrix(1.06607,8.09098e-18,-8.09098e-18,-1,-33.0339,960)">
                <path d="M500,460C546.291,498.983 563.849,490.853 570,560C560.813,560.168 551.997,561.943 543.336,564.103C516.947,570.686 492.01,580.844 462.479,560C454.498,554.367 442.76,551.695 430,560C439.545,499.043 448.213,502.021 500,460Z" style="fill:rgb(79,77,75);"/>
            </g>
            <path d="M510,420L490,420L490,480L500,490L510,480L510,420Z" style="fill:rgb(98,98,98);"/>
            <rect x="426.162" y="270" width="49.249" height="10" style="fill:rgb(70,70,70);"/>
            <g transform="matrix(1,0,0,1,99.2129,0)">
                <rect x="426.162" y="270" width="49.249" height="10" style="fill:rgb(70,70,70);"/>
            </g>
            <g transform="matrix(2.27625,0,0,1.41351,-638.38,-165.929)">
                <path d="M500,401C512.772,401 510.5,401.454 510.5,401.454C510.5,401.454 512.772,403.201 500,403.201C487.228,403.201 490,401.454 490,401.454C490,401.454 487.228,401 500,401Z"/>
            </g>
        </g>
        <g transform="matrix(1,0,0,1,-1.7053e-13,28.0381)">
            <path d="M390,130L399.565,100L409.13,130L418.696,130L433.043,100L447.391,130L456.957,130L476.087,100L495.217,130L504.783,130L523.913,100L543.043,130L552.609,130L566.957,100L581.304,130L590.87,130L600.435,100L610,130C612.38,146.402 612.413,163.065 610,180C534.76,187.08 461.511,186.768 390,180C387.025,163.333 387.116,146.667 390,130Z" style="fill:rgb(255,186,0);"/>
        </g>
    </g>
</svg>
